<?xml version="1.0" encoding="UTF-8"?>
<svg id="b" data-name="Calque 2" xmlns="http://www.w3.org/2000/svg" viewBox="0 0 220.59 73.39">
  <g id="c" data-name="Iconographie">
    <g>
      <g>
        <g>
          <path d="m46.33,56.11c-5.14,1.4-6.85,1.33-7.38,1.21.39-.78,2.21-2.51,4.13-3.88.45-.32.56-.96.25-1.42-.32-.46-.94-.57-1.39-.25-2.71,1.93-5.76,4.61-4.91,6.47.32.71,1,1.18,2.62,1.18,1.47,0,3.73-.39,7.2-1.33.53-.15.85-.71.71-1.25-.14-.55-.69-.87-1.23-.72Z" style="fill: none;"/>
          <path d="m57.93,9.83c.97.54,3.01-.64,4.25,1.12.64.92-1.35-4.16-2.31-4.7s-2.19-.18-2.72.8c-.53.99-.18,2.23.79,2.77Z" style="fill: #e12229;"/>
          <path d="m55.88,44.42c-.42-.5-.36-1.24.13-1.66.49-.42,1.22-.36,1.63.13,6.09,7.28,15.95,9.21,25.77,5.08,1-2.8,1.49-5.73,1.56-8.6,0-7.79-3.7-14.98-10.01-19.31-2.92-2.01-9.67-4.68-18.52-3.19-6.51,1.1-13.25,6.12-15.89,8.37-1.59,1.36-20.49,19.64-28.37,15.99-5.33-2.46,4.19-11.43-.18-19.63-.12-.22-.43-.24-.58-.04-2.22,3.06-4.4,6.73-7.36,5.08-1.32-.74-2.51-3.09-3.43-4.58-.18-.3-.65-.15-.63.2.34,10.29,5.22,17.87,9.15,22.67,6.8,8.3,18.71,17.96,37.96,19.92,19.84,1.84,30.4-4.97,34.99-13.88-2.99,1.01-5.96,1.51-8.82,1.51-6.78,0-12.97-2.77-17.4-8.06Zm-9.03,13.67c-3.47.95-5.73,1.33-7.2,1.33-1.63,0-2.3-.47-2.62-1.18-.85-1.86,2.2-4.54,4.91-6.47.46-.32,1.08-.21,1.39.25.32.46.2,1.1-.25,1.42-1.92,1.37-3.75,3.09-4.13,3.88.53.12,2.25.19,7.38-1.21.53-.15,1.08.18,1.23.72.14.55-.17,1.11-.71,1.25Z" style="fill: #e12229;"/>
          <path d="m65.03,14.02c1.24-1.76,3.28-2.62,4.25-3.17s1.32-1.79.79-2.77c-.53-.99-1.77-1.37-2.72-.8-2.49,1.49-2.96,7.66-2.31,6.74Z" style="fill: #e12229;"/>
          <path d="m64.64,5.17c.44-1.38,1.55-2.39,2.05-2.95.5-.56.49-1.41-.03-1.89-.52-.48-1.36-.43-1.85.15-1.28,1.51-.4,5.41-.17,4.69Z" style="fill: #e12229;"/>
        </g>
        <g>
          <ellipse cx="70.02" cy="37.22" rx="3.7" ry="4.08" style="fill: #fff;"/>
          <ellipse cx="71.51" cy="38.12" rx="2.5" ry="2.55" style="fill: #e12229;"/>
        </g>
      </g>
      <g>
        <path d="m102.35,22.65h18.29v2.2h-15.65v14.72h14.39v2.2h-14.39v17.9h-2.64V22.65Z" style="fill: #808184;"/>
        <path d="m130.36,22.65v37.01h-2.64V22.65h2.64Z" style="fill: #808184;"/>
        <path d="m139.31,23.2c2.86-.49,5.99-.82,9.5-.82,6.75,0,11.86,1.81,14.94,5.05,2.97,3.08,4.61,7.25,4.61,12.85s-1.48,10.32-4.83,14c-3.24,3.57-8.84,5.66-15.98,5.66-2.86,0-5.55-.05-8.24-.33V23.2Zm2.64,34.27c1.48.22,3.62.27,5.99.27,11.86,0,17.74-6.65,17.74-17.35.11-9.39-5.11-15.82-17.02-15.82-2.86,0-5.11.27-6.7.6v32.29Z" style="fill: #808184;"/>
        <path d="m174.84,22.65h2.64v34.82h16.48v2.2h-19.11V22.65Z" style="fill: #808184;"/>
        <path d="m216.85,41.27h-14.77v16.2h16.53v2.2h-19.17V22.65h18.29v2.2h-15.65v14.22h14.77v2.2Z" style="fill: #808184;"/>
      </g>
    </g>
  </g>
</svg>