<?xml version="1.0" encoding="UTF-8"?>
<svg id="b" data-name="Calque 2" xmlns="http://www.w3.org/2000/svg" viewBox="0 0 752.58 36.04">
  <g id="c" data-name="Iconographie">
    <g>
      <g>
        <g>
          <g>
            <path d="m17.27,29.6c-1.91.52-2.55.5-2.75.45.14-.29.82-.94,1.54-1.44.17-.12.21-.36.09-.53-.12-.17-.35-.21-.52-.09-1.01.72-2.15,1.72-1.83,2.41.12.26.37.44.98.44.55,0,1.39-.14,2.68-.5.2-.05.32-.26.26-.47-.05-.2-.26-.32-.46-.27Z" style="fill: none;"/>
            <path d="m21.59,12.35c.36.2,1.12-.24,1.58.42.24.34-.5-1.55-.86-1.75s-.81-.07-1.01.3c-.2.37-.07.83.29,1.03Z" style="fill: #e12229;"/>
            <path d="m20.83,25.24c-.15-.18-.13-.46.05-.62.18-.16.45-.14.61.05,2.27,2.71,5.94,3.43,9.6,1.89.37-1.04.56-2.13.58-3.2,0-2.9-1.38-5.59-3.73-7.2-1.09-.75-3.6-1.75-6.9-1.19-2.42.41-4.94,2.28-5.92,3.12-.59.51-7.64,7.32-10.58,5.96-1.99-.92,1.56-4.26-.07-7.32-.04-.08-.16-.09-.22-.01-.83,1.14-1.64,2.51-2.74,1.89-.49-.27-.94-1.15-1.28-1.71-.07-.11-.24-.06-.24.08.13,3.84,1.95,6.66,3.41,8.45,2.53,3.09,6.97,6.69,14.15,7.42,7.39.68,11.33-1.85,13.04-5.17-1.11.38-2.22.56-3.29.56-2.53,0-4.84-1.03-6.49-3Zm-3.37,5.09c-1.29.35-2.13.5-2.68.5-.61,0-.86-.18-.98-.44-.32-.69.82-1.69,1.83-2.41.17-.12.4-.08.52.09.12.17.08.41-.09.53-.72.51-1.4,1.15-1.54,1.44.2.04.84.07,2.75-.45.2-.05.4.07.46.27.05.2-.06.41-.26.47Z" style="fill: #e12229;"/>
            <path d="m24.24,13.91c.46-.66,1.22-.98,1.58-1.18s.49-.67.29-1.03c-.2-.37-.66-.51-1.01-.3-.93.56-1.1,2.86-.86,2.51Z" style="fill: #e12229;"/>
            <path d="m24.09,10.61c.16-.51.58-.89.77-1.1.19-.21.18-.53-.01-.71-.19-.18-.51-.16-.69.05-.48.56-.15,2.02-.06,1.75Z" style="fill: #e12229;"/>
          </g>
          <g>
            <ellipse cx="26.1" cy="22.56" rx="1.38" ry="1.52" style="fill: #fff;"/>
            <ellipse cx="26.66" cy="22.89" rx=".93" ry=".95" style="fill: #e12229;"/>
          </g>
        </g>
        <g>
          <path d="m38.15,17.13h6.81v.82h-5.83v5.48h5.36v.82h-5.36v6.67h-.98v-13.79Z" style="fill: #808184;"/>
          <path d="m48.59,17.13v13.79h-.98v-13.79h.98Z" style="fill: #808184;"/>
          <path d="m51.92,17.33c1.06-.18,2.23-.31,3.54-.31,2.52,0,4.42.67,5.57,1.88,1.1,1.15,1.72,2.7,1.72,4.79s-.55,3.85-1.8,5.22c-1.21,1.33-3.29,2.11-5.95,2.11-1.06,0-2.07-.02-3.07-.12v-13.57Zm.98,12.77c.55.08,1.35.1,2.23.1,4.42,0,6.61-2.48,6.61-6.47.04-3.5-1.9-5.89-6.34-5.89-1.06,0-1.9.1-2.5.22v12.03Z" style="fill: #808184;"/>
          <path d="m65.17,17.13h.98v12.97h6.14v.82h-7.12v-13.79Z" style="fill: #808184;"/>
          <path d="m80.83,24.07h-5.5v6.04h6.16v.82h-7.14v-13.79h6.81v.82h-5.83v5.3h5.5v.82Z" style="fill: #808184;"/>
        </g>
      </g>
      <line y1=".12" x2="752.58" y2=".12" style="fill: none; stroke: #e6e7e7; stroke-miterlimit: 10; stroke-width: .25px;"/>
    </g>
  </g>
</svg>