<?xml version="1.0" encoding="UTF-8" standalone="no"?>
<!-- Created with Inkscape (http://www.inkscape.org/) -->

<svg
   width="275.16666mm"
   height="105.83333mm"
   viewBox="0 0 275.16666 105.83332"
   version="1.1"
   id="svg1116"
   inkscape:version="1.1.2 (0a00cf5339, 2022-02-04)"
   sodipodi:docname="logo.svg"
   xmlns:inkscape="http://www.inkscape.org/namespaces/inkscape"
   xmlns:sodipodi="http://sodipodi.sourceforge.net/DTD/sodipodi-0.dtd"
   xmlns="http://www.w3.org/2000/svg"
   xmlns:svg="http://www.w3.org/2000/svg"
   xmlns:rdf="http://www.w3.org/1999/02/22-rdf-syntax-ns#"
   xmlns:cc="http://creativecommons.org/ns#"
   xmlns:dc="http://purl.org/dc/elements/1.1/">
  <title
     id="title1179">NumLPA logo</title>
  <sodipodi:namedview
     id="namedview1118"
     pagecolor="#ffffff"
     bordercolor="#000000"
     borderopacity="0.25"
     inkscape:pageshadow="2"
     inkscape:pageopacity="0.0"
     inkscape:pagecheckerboard="0"
     inkscape:document-units="px"
     showgrid="false"
     inkscape:zoom="0.75187995"
     inkscape:cx="555.27481"
     inkscape:cy="234.74492"
     inkscape:window-width="1920"
     inkscape:window-height="1016"
     inkscape:window-x="0"
     inkscape:window-y="27"
     inkscape:window-maximized="1"
     inkscape:current-layer="layer1"
     inkscape:snap-grids="true"
     inkscape:snap-to-guides="true"
     inkscape:snap-smooth-nodes="true"
     inkscape:snap-intersection-paths="true"
     inkscape:object-paths="true"
     inkscape:snap-center="false"
     inkscape:snap-midpoints="true"
     inkscape:snap-nodes="true"
     inkscape:snap-bbox="true">
    <inkscape:grid
       type="xygrid"
       id="grid1203"
       originx="-21.166666"
       originy="-31.749998" />
  </sodipodi:namedview>
  <defs
     id="defs1113" />
  <g
     inkscape:label="Layer 1"
     inkscape:groupmode="layer"
     id="layer1"
     transform="translate(-21.166666,-31.75)">
    <path
       id="path37106-5"
       style="color:#000000;fill:#ffcc00;stroke-width:2.64583;stroke-linecap:round;stroke-linejoin:bevel;-inkscape-stroke:none"
       d="m 52.476899,49.888438 c -8.667234,5.386094 -14.892117,13.712407 -17.688842,23.268863 0.703921,-0.256743 1.46246,-0.396875 2.253093,-0.396875 h 18.521865 c 2.261965,0 4.265642,1.147713 5.459616,2.889748 1.083686,-1.569707 2.441393,-2.931266 4.008025,-4.019394 l -5.328875,-9.228894 c -1.258805,0.727022 -2.86862,0.296288 -3.596164,-0.962216 l -2.645314,-4.583184 c -0.706641,-1.225237 -0.318961,-2.789875 0.877982,-3.54345 0.0273,-0.01717 0.05714,-0.03636 0.08475,-0.05374 z m 51.221681,6.502445 c -0.12961,0.737987 -0.38759,1.464514 -0.7829,2.149224 l -9.260933,16.04088 c -1.130983,1.95892 -3.127121,3.120009 -5.232755,3.283003 0.817581,1.723369 1.317879,3.579977 1.476912,5.480804 l 10.657236,-5.29e-4 c -2.7e-4,-1.453724 1.17763,-2.632599 2.63136,-2.63343 l 5.29167,0.0011 c 1.41446,5.29e-4 2.5757,1.118716 2.62981,2.532147 10e-4,0.03223 0.003,0.06766 0.004,0.10025 h 3.89227 C 114.6745,73.145199 110.57634,63.591161 103.69857,56.390899 Z m -36.378143,42.633572 -5.328356,9.229415 c 1.25913,0.72664 1.691036,2.33628 0.9648,3.59564 l -2.646352,4.58215 c -0.707617,1.22481 -2.25657,1.6716 -3.507795,1.01183 -0.02852,-0.0151 -0.06003,-0.0318 -0.08888,-0.047 l -1.946135,3.37085 c 12.080568,6.46178 26.550066,6.46354 38.630716,0.002 l -1.95595,-3.38791 c -0.02008,0.0107 -0.03985,0.0219 -0.05995,0.0326 -1.251066,0.66114 -2.800966,0.21518 -3.509346,-1.00976 l -2.637049,-4.56613 c -0.715436,-1.24858 -0.295884,-2.84026 0.942062,-3.57394 L 80.84416,99.024913 c -2.114442,0.997207 -4.423032,1.515107 -6.760827,1.516707 -2.338533,-10e-4 -4.647864,-0.51954 -6.762895,-1.517226 z"
       inkscape:label="path37106-5"
       sodipodi:nodetypes="ccsscccccscccccccccccccsccccccccccccccccsc" />
    <path
       d="m 116.41666,95.990679 h 7.40696 l 9.35345,17.638901 V 95.990679 h 6.2873 v 25.717651 h -7.40696 l -9.35344,-17.6389 v 17.6389 h -6.28731 z"
       id="path7414"
       style="font-weight:bold;font-size:35.2778px;font-family:'DejaVu Sans';-inkscape-font-specification:'DejaVu Sans Bold';fill:#666666;fill-opacity:1;stroke-width:5.29167;stroke-linecap:round;stroke-linejoin:round" />
    <path
       d="m 145.45884,114.19802 v -11.78223 h 6.20118 v 1.92925 q 0,1.56752 -0.0172,3.94464 -0.0172,2.35989 -0.0172,3.15226 0,2.32544 0.12058,3.35897 0.12058,1.01631 0.41341,1.48139 0.37897,0.6029 0.98186,0.93018 0.62011,0.32729 1.41249,0.32729 1.92925,0 3.03168,-1.4814 1.10243,-1.48139 1.10243,-4.11689 v -9.52569 h 6.16673 v 19.29254 h -6.16673 v -2.79053 q -1.39526,1.6881 -2.96278,2.4977 -1.55029,0.79237 -3.42787,0.79237 -3.34175,0 -5.09875,-2.04983 -1.73977,-2.04983 -1.73977,-5.96002 z"
       id="path7416"
       style="font-weight:bold;font-size:35.2778px;font-family:'DejaVu Sans';-inkscape-font-specification:'DejaVu Sans Bold';fill:#666666;fill-opacity:1;stroke-width:5.29167;stroke-linecap:round;stroke-linejoin:round" />
    <path
       d="m 188.66037,105.61973 q 1.17133,-1.79145 2.7733,-2.72163 1.6192,-0.9474 3.54845,-0.9474 3.32452,0 5.06429,2.04983 1.73978,2.04983 1.73978,5.96002 v 11.74778 h -6.20118 v -10.05968 q 0.0172,-0.22393 0.0172,-0.46509 0.0172,-0.24116 0.0172,-0.68902 0,-2.04983 -0.60289,-2.96278 -0.60289,-0.93018 -1.94648,-0.93018 -1.757,0 -2.72163,1.44694 -0.9474,1.44694 -0.98185,4.18579 v 9.47402 h -6.20118 v -10.05968 q 0,-3.20394 -0.55121,-4.11689 -0.55122,-0.93018 -1.96371,-0.93018 -1.77422,0 -2.73885,1.46417 -0.96463,1.44694 -0.96463,4.15134 v 9.49124 h -6.20117 v -19.29254 h 6.20117 v 2.82498 q 1.13689,-1.63643 2.60105,-2.46325 1.48139,-0.82682 3.25562,-0.82682 1.99816,0 3.53122,0.96463 1.53307,0.96462 2.32545,2.7044 z"
       id="path7418"
       style="font-weight:bold;font-size:35.2778px;font-family:'DejaVu Sans';-inkscape-font-specification:'DejaVu Sans Bold';fill:#666666;fill-opacity:1;stroke-width:5.29167;stroke-linecap:round;stroke-linejoin:round" />
    <path
       id="path3054"
       style="color:#000000;fill:#666666;fill-opacity:1;stroke-width:0.264583;stroke-linecap:round;stroke-linejoin:round;-inkscape-stroke:none"
       d="m 74.092635,49.619193 c -5.966021,-0.01209 -12.012012,1.497169 -17.537948,4.68757 -0.398333,0.229989 -0.778013,0.469067 -1.150319,0.703315 -0.300918,0.189349 -0.398364,0.582999 -0.220657,0.890903 l 2.645318,4.581631 c 0.188528,0.326376 0.611486,0.429754 0.92914,0.226859 0.364982,-0.232926 0.731408,-0.459359 1.103809,-0.674376 5.310333,-3.06593 11.177432,-4.228824 16.833599,-3.705717 l 3.5326,-6.117973 c -0.06518,-0.03755 -0.138536,-0.06522 -0.218591,-0.07907 -1.948555,-0.336206 -3.928279,-0.509116 -5.916951,-0.513146 z m 29.061795,33.724556 c 0.0195,0.438573 0.0331,0.878909 0.0331,1.322401 0,11.269416 -6.365567,21.01722 -15.705504,25.85578 l 2.636018,4.56614 c 10.909296,-5.77408 18.360636,-17.243885 18.360636,-30.42192 0,-0.443455 -0.0169,-0.882968 -0.0336,-1.322401 z M 41.171648,96.572915 c 6.6e-5,0.07522 0.01278,0.15216 0.04082,0.22841 2.732455,7.422405 7.974816,13.971895 15.342732,18.225765 0.398343,0.22996 0.795409,0.4391 1.184426,0.6444 0.314441,0.16593 0.703802,0.0536 0.881599,-0.25425 l 2.645315,-4.58215 c 0.188386,-0.32646 0.06634,-0.74412 -0.2682,-0.91777 -0.38421,-0.19962 -0.76344,-0.40357 -1.135849,-0.61857 -5.310343,-3.06592 -9.251103,-7.5659 -11.626162,-12.725835 z" />
    <path
       id="path4415"
       style="fill:#ffcc00;fill-opacity:1;stroke:none;stroke-width:0.529167;stroke-linecap:round;stroke-linejoin:round;stroke-miterlimit:4;stroke-dasharray:none;stroke-opacity:1"
       d="m 74.083332,75.406249 a 9.2604166,9.2604166 0 0 0 -9.163264,7.936984 h 8.400002 l 4.189926,-7.256923 a 9.2604166,9.2604166 0 0 0 -3.426664,-0.680061 z m 5.717482,2.002462 -4.571815,7.918378 -5.29e-4,0.0011 a 1.32292,1.32292 0 0 1 -0.0036,0.0052 1.32292,1.32292 0 0 1 -0.116271,0.165881 1.322915,1.322915 0 0 1 -0.03669,0.04186 1.32292,1.32292 0 0 1 -0.112139,0.112655 1.322915,1.322915 0 0 1 -0.04496,0.03927 1.32292,1.32292 0 0 1 -0.165364,0.115756 1.32292,1.32292 0 0 1 -0.01344,0.0072 1.32292,1.32292 0 0 1 -0.181901,0.08475 1.322915,1.322915 0 0 1 -0.05323,0.0181 1.32292,1.32292 0 0 1 -0.14986,0.04031 1.322915,1.322915 0 0 1 -0.0615,0.01241 1.32292,1.32292 0 0 1 -0.206166,0.01806 h -9.163264 a 9.2604166,9.2604166 0 0 0 9.163264,7.9375 9.2604166,9.2604166 0 0 0 9.260417,-9.260416 9.2604166,9.2604166 0 0 0 -3.542935,-7.257955 z" />
    <path
       id="path2468"
       style="color:#000000;fill:#666666;fill-opacity:1;stroke-width:2.64583;stroke-linecap:round;stroke-linejoin:bevel;-inkscape-stroke:none"
       d="m 87.927965,45.959984 c -1.33654,0.02461 -2.615031,0.734195 -3.343982,1.996779 l -9.260416,16.039846 c -0.9681,1.676799 -0.605817,3.70477 0.776697,4.93355 a 15.875,15.875 0 0 1 4.744413,1.378728 L 91.458499,51.925513 a 1.3229199,1.3229199 0 0 1 0.0041,-0.0047 1.32292,1.32292 0 0 1 0.30334,-0.345715 1.3229199,1.3229199 0 0 1 0.05788,-0.04961 1.32292,1.32292 0 0 1 0.398942,-0.196887 1.3229199,1.3229199 0 0 1 0.08217,-0.0217 1.32292,1.32292 0 0 1 0.445968,-0.02894 1.3229199,1.3229199 0 0 1 0.07183,0.01344 1.32292,1.32292 0 0 1 0.441833,0.150378 1.3229199,1.3229199 0 0 1 0.0016,5.29e-4 1.3229199,1.3229199 0 0 1 5.29e-4,0 1.32292,1.32292 0 0 1 5.29e-4,5.3e-4 1.32292,1.32292 0 0 1 0.353984,0.311091 1.3229199,1.3229199 0 0 1 0.04393,0.05064 1.32292,1.32292 0 0 1 0.199469,0.405659 1.3229199,1.3229199 0 0 1 0.02016,0.0739 1.32292,1.32292 0 0 1 0.02997,0.452683 1.3229199,1.3229199 0 0 1 -0.01188,0.06253 1.32292,1.32292 0 0 1 -0.151929,0.449585 L 83.137109,71.632351 a 15.875,15.875 0 0 1 3.566708,3.418912 c 1.755166,0.582507 3.691673,-0.117081 4.659664,-1.793687 l 9.260929,-16.040365 c 1.11078,-1.923936 0.47131,-4.310591 -1.452619,-5.421376 l -9.16585,-5.291666 c -0.661352,-0.381831 -1.377817,-0.557041 -2.07791,-0.544153 z M 37.04115,75.406249 c -2.221568,0 -3.96875,1.747184 -3.96875,3.96875 v 10.583849 c 0,2.221569 1.747182,3.96875 3.96875,3.96875 h 18.521349 c 1.9362,0 3.511103,-1.327661 3.884002,-3.139342 A 15.874999,15.874999 0 0 1 58.268277,85.990098 H 37.04115 a 1.3229199,1.3229199 0 0 1 -0.0062,-0.0011 1.32292,1.32292 0 0 1 -0.451136,-0.08992 1.3229199,1.3229199 0 0 1 -0.07183,-0.02532 1.32292,1.32292 0 0 1 -0.370004,-0.247531 1.3229199,1.3229199 0 0 1 -0.05994,-0.05994 1.32292,1.32292 0 0 1 -0.248047,-0.371555 1.3229199,1.3229199 0 0 1 -0.02429,-0.06924 1.32292,1.32292 0 0 1 -0.09043,-0.457853 1.3229199,1.3229199 0 0 1 -5.29e-4,-0.0016 1.3229199,1.3229199 0 0 1 0,-5.29e-4 1.32292,1.32292 0 0 1 0,-5.29e-4 1.32292,1.32292 0 0 1 0.0925,-0.462505 1.3229199,1.3229199 0 0 1 0.0217,-0.06305 1.32292,1.32292 0 0 1 0.251663,-0.375687 1.3229199,1.3229199 0 0 1 0.05426,-0.05426 1.32292,1.32292 0 0 1 0.376722,-0.25218 1.3229199,1.3229199 0 0 1 0.05994,-0.02119 1.32292,1.32292 0 0 1 0.465606,-0.09302 h 21.227126 a 15.874999,15.874999 0 0 1 1.177705,-4.798157 c -0.373107,-1.811179 -1.947492,-3.138734 -3.883472,-3.138734 z"
       inkscape:label="path2468" />
    <path
       d="m 207.81511,95.990679 h 6.63181 v 20.705041 h 11.64443 v 5.01261 h -18.27624 z"
       style="font-weight:bold;font-size:35.2778px;font-family:'DejaVu Sans';-inkscape-font-specification:'DejaVu Sans Bold';fill:#ffcc00;fill-opacity:1;stroke-width:5.29167;stroke-linecap:round;stroke-linejoin:round"
       id="path7420" />
    <path
       d="m 230.29437,95.990679 h 11.00709 q 4.90926,0 7.52754,2.187637 2.6355,2.170414 2.6355,6.201174 0,4.04799 -2.6355,6.23563 -2.61828,2.17041 -7.52754,2.17041 h -4.37527 v 8.9228 h -6.63182 z m 6.63182,4.805911 v 7.18303 h 3.66903 q 1.92925,0 2.98,-0.93018 1.05076,-0.9474 1.05076,-2.66995 0,-1.72255 -1.05076,-2.65272 -1.05075,-0.93018 -2.98,-0.93018 z"
       style="font-weight:bold;font-size:35.2778px;font-family:'DejaVu Sans';-inkscape-font-specification:'DejaVu Sans Bold';fill:#ffcc00;fill-opacity:1;stroke-width:5.29167;stroke-linecap:round;stroke-linejoin:round"
       id="path7422" />
    <path
       d="m 268.51774,117.023 h -10.36975 l -1.63642,4.68533 h -6.66626 L 259.371,95.990679 h 7.9065 l 9.5257,25.717651 h -6.66627 z m -8.7161,-4.77146 h 7.04523 l -3.514,-10.23194 z"
       style="font-weight:bold;font-size:35.2778px;font-family:'DejaVu Sans';-inkscape-font-specification:'DejaVu Sans Bold';fill:#ffcc00;fill-opacity:1;stroke-width:5.29167;stroke-linecap:round;stroke-linejoin:round"
       id="path7424" />
  </g>
  <metadata
     id="metadata1177">
    <rdf:RDF>
      <cc:Work
         rdf:about="">
        <dc:title>NumLPA logo</dc:title>
        <dc:date>2023-03-09</dc:date>
        <dc:creator>
          <cc:Agent>
            <dc:title>Dunstan Becht</dc:title>
          </cc:Agent>
        </dc:creator>
        <cc:license
           rdf:resource="http://creativecommons.org/licenses/by-sa/4.0/" />
      </cc:Work>
      <cc:License
         rdf:about="http://creativecommons.org/licenses/by-sa/4.0/">
        <cc:permits
           rdf:resource="http://creativecommons.org/ns#Reproduction" />
        <cc:permits
           rdf:resource="http://creativecommons.org/ns#Distribution" />
        <cc:requires
           rdf:resource="http://creativecommons.org/ns#Notice" />
        <cc:requires
           rdf:resource="http://creativecommons.org/ns#Attribution" />
        <cc:permits
           rdf:resource="http://creativecommons.org/ns#DerivativeWorks" />
        <cc:requires
           rdf:resource="http://creativecommons.org/ns#ShareAlike" />
      </cc:License>
    </rdf:RDF>
  </metadata>
</svg>
